#!OML:ASF F:\VICON\USERDATA\INSTALL\rory3\rory3.ASF
:FULLY-SPECIFIED
:DEGREES
4309
root -9.89634 17.846 14.1145 -1060.19 254.67 -743.714
lowerback 9.95715 0.440881 -2.87003
upperback 0.254272 0.292674 1.08172
thorax -5.34624 0.220133 2.70864
lowerneck -16.4576 -5.08828 -11.0035
upperneck 29.9205 -7.48851 7.80033
head 13.5814 -3.82531 3.65461
rclavicle 2.00524e-014 -4.77083e-015
rhumerus -38.6348 -9.93661 -78.7016
rradius 31.9617
rwrist 3.37335
rhand -18.1846 7.53635
rfingers 7.12502
rthumb 8.09215 -22.2887
lclavicle 2.00524e-014 -4.77083e-015
lhumerus -31.8272 1.08607 84.6911
lradius 33.0528
lwrist -6.36945
lhand -16.6599 23.1709
lfingers 7.12502
lthumb 9.56346 52.9339
rfemur -9.27057 -9.25978 28.3576
rtibia 20.8202
rfoot -9.59919 -9.60665
rtoes 30.3945
lfemur -3.69993 8.85397 -19.1455
ltibia 54.1507
lfoot 20.8006 -15.7347
ltoes 4.4806
4310
root -9.98003 17.8353 14.0859 -1062.24 253.837 -741.83
lowerback 10.1073 0.55126 -2.66622
upperback 0.302011 0.455432 1.04343
thorax -5.38942 0.293923 2.52954
lowerneck -16.4344 -5.09902 -10.7983
upperneck 29.9181 -7.55098 7.71226
head 13.5684 -3.8439 3.57211
rclavicle 2.33075e-014 -1.35174e-014
rhumerus -38.4487 -9.92545 -78.946
rradius 32.2296
rwrist 3.29322
rhand -18.3031 7.82223
rfingers 7.12502
rthumb 7.97777 -22.0072
lclavicle 2.33075e-014 -1.35174e-014
lhumerus -31.8459 1.14616 84.7911
lradius 32.8611
lwrist -6.69198
lhand -16.4574 22.9906
lfingers 7.12502
lthumb 9.75888 52.7445
rfemur -8.60507 -8.98897 28.5342
rtibia 20.7452
rfoot -9.87465 -9.00534
rtoes 30.4271
lfemur -4.50141 8.82396 -18.6775
ltibia 55.6406
lfoot 19.6298 -16.2072
ltoes 2.66908
4311
root -10.0615 17.8291 14.0615 -1064.23 252.94 -739.881
lowerback 10.2206 0.663185 -2.22536
upperback 0.272839 0.64635 0.923705
thorax -5.48901 0.376714 2.12631
lowerneck -16.3138 -5.08897 -10.552
upperneck 29.8945 -7.63613 7.70443
head 13.5292 -3.86165 3.51194
rclavicle -3.40916e-014 -9.54166e-015
rhumerus -38.2777 -10.2161 -79.1499
rradius 32.4031
rwrist 3.4503
rhand -18.1666 8.21443
rfingers 7.12502
rthumb 8.10959 -21.61
lclavicle -3.40916e-014 -9.54166e-015
lhumerus -31.8605 1.11004 84.8123
lradius 32.5394
lwrist -7.15385
lhand -16.7341 23.0077
lfingers 7.12502
lthumb 9.49189 52.774
rfemur -8.11757 -8.53001 28.7823
rtibia 20.7717
rfoot -10.1562 -8.49559
rtoes 30.3469
lfemur -5.37072 8.46421 -18.3233
ltibia 57.0111
lfoot 17.7993 -15.9035
ltoes -0.229522
4312
root -10.1404 17.8191 14.0357 -1065.82 251.905 -738.315
lowerback 10.2903 0.851245 -1.97908
upperback 0.258903 0.918993 0.832885
thorax -5.55181 0.504072 1.85075
lowerneck -16.1252 -5.13329 -10.474
upperneck 29.7827 -7.78892 7.82572
head 13.4607 -3.91153 3.5203
rclavicle -3.78933e-014 -7.95139e-016
rhumerus -38.1089 -10.5337 -79.2485
rradius 32.6201
rwrist 3.67233
rhand -18.0473 8.44168
rfingers 7.12502
rthumb 8.22469 -21.3782
lclavicle -3.78933e-014 -7.95139e-016
lhumerus -31.8425 0.707814 85.0785
lradius 32.2734
lwrist -7.26737
lhand -17.4576 23.6172
lfingers 7.12502
lthumb 8.79379 53.414
rfemur -7.65184 -8.02308 28.9568
rtibia 20.8017
rfoot -10.4059 -7.93885
rtoes 30.2667
lfemur -6.23059 7.75125 -18.239
ltibia 58.2703
lfoot 15.7687 -14.7619
ltoes -3.02376
4313
root -10.2178 17.8056 14.01 -1067.3 250.767 -736.999
lowerback 10.4334 1.06266 -1.94592
upperback 0.320562 1.19916 0.826415
thorax -5.57994 0.639702 1.7817
lowerneck -16.0417 -5.20842 -10.4751
upperneck 29.6985 -7.94572 7.93159
head 13.431 -3.97067 3.53434
rclavicle -4.43538e-014 1.59028e-015
rhumerus -37.8751 -10.706 -79.3389
rradius 32.8286
rwrist 3.7732
rhand -17.9368 8.63568
rfingers 7.12502
rthumb 8.33128 -21.18
lclavicle -4.43538e-014 1.59028e-015
lhumerus -31.8036 0.391244 85.4217
lradius 32.0385
lwrist -6.87859
lhand -18.4609 24.2108
lfingers 7.12502
lthumb 7.82549 54.046
rfemur -7.02895 -7.66456 29.0539
rtibia 20.7913
rfoot -10.6237 -7.21718
rtoes 29.8214
lfemur -6.92641 7.26187 -18.1531
ltibia 59.4127
lfoot 13.7138 -13.3802
ltoes -6.12686
4314
root -10.2925 17.7981 13.9879 -1068.81 249.668 -735.563
lowerback 10.5804 1.1767 -1.83058
upperback 0.331309 1.3659 0.918199
thorax -5.65858 0.719759 1.7853
lowerneck -16.0379 -5.20286 -10.5784
upperneck 29.7442 -7.92083 7.92636
head 13.4515 -3.97659 3.55462
rclavicle 3.20043e-014 -6.36111e-015
rhumerus -37.5869 -10.5674 -79.492
rradius 33.019
rwrist 3.64647
rhand -18.1114 8.59097
rfingers 7.12502
rthumb 8.16281 -21.2314
lclavicle 3.20043e-014 -6.36111e-015
lhumerus -31.8627 0.983644 85.5164
lradius 31.7268
lwrist -7.14767
lhand -18.9751 23.989
lfingers 7.12502
lthumb 7.32917 53.8421
rfemur -6.49036 -7.313 29.2742
rtibia 20.7348
rfoot -10.7694 -6.58677
rtoes 28.8342
lfemur -7.68996 6.79683 -17.9403
ltibia 60.4218
lfoot 11.8562 -11.8326
ltoes -8.43051
4315
root -10.369 17.7976 13.9661 -1070.09 248.607 -734.281
lowerback 10.6137 1.25684 -1.67225
upperback 0.352554 1.49521 1.01359
thorax -5.65937 0.779568 1.77563
lowerneck -16.043 -5.17509 -10.8355
upperneck 29.7923 -7.86611 8.07279
head 13.4866 -3.96794 3.66786
rclavicle 6.9848e-014 -2.14687e-014
rhumerus -37.2705 -10.2891 -79.6804
rradius 33.2954
rwrist 3.38023
rhand -18.3711 8.46387
rfingers 7.12502
rthumb 7.91218 -21.3681
lclavicle 6.9848e-014 -2.14687e-014
lhumerus -31.8646 1.863 85.4866
lradius 31.3663
lwrist -7.83366
lhand -18.4771 23.4537
lfingers 7.12502
lthumb 7.80989 53.2895
rfemur -6.02286 -6.859 29.4844
rtibia 20.689
rfoot -10.9067 -6.07001
rtoes 28.2774
lfemur -8.49498 6.13682 -17.7428
ltibia 61.2562
lfoot 10.4475 -9.88701
ltoes -7.84688
